# xmcd
#
# Track frame offsets:
#	150
#	14345
#	28540
#
# Disc length: 569 seconds
#
# Revision: 0
# Processed by: cddbd v1.5.2PL0 Copyright (c) Steve Scherf et al.
# Submitted via: audiograbber 1.83.01
#
DISCID=18023703
DTITLE=Toby Keith - Toby Keith 35 Biggest Hits
DYEAR=2008
DGENRE=Country
TTITLE0=She's A Hottie
TTITLE1=She's A Hottie
TTITLE2=She's A Hottie
EXTD=
EXTT0=
EXTT1=
EXTT2=
PLAYORDER=
